<!DOCTYPE svg PUBLIC "-//W3C//DTD SVG 1.1//EN" "http://www.w3.org/Graphics/SVG/1.1/DTD/svg11.dtd">

<!-- Uploaded to: SVG Repo, www.svgrepo.com, Transformed by: SVG Repo Mixer Tools -->
<svg width="800px" height="800px" viewBox="-1.6 -1.6 19.20 19.20" version="1.1" xmlns="http://www.w3.org/2000/svg" xmlns:xlink="http://www.w3.org/1999/xlink" fill="" stroke="" transform="rotate(45)matrix(1, 0, 0, 1, 0, 0)" stroke-width="0.00016">

<g id="SVGRepo_bgCarrier" stroke-width="0" transform="translate(0,0), scale(1)">

<path transform="translate(-1.6, -1.6), scale(0.6)" d="M16,29.533555841073394C18.102743596570186,29.858472615968235,19.761272722317145,27.743614303471098,21.621029473371888,26.70997685715286C23.438344524922382,25.699928156980107,25.4459084776361,25.020019480919128,26.861236517452085,23.496970265357373C28.378660704397525,21.8640543246104,29.41160712834013,19.85080889836381,29.99446512787263,17.699235709961062C30.62755761032066,15.36222598871323,31.19170536509688,12.82775506655864,30.368332107034206,10.55081040178386C29.542707932140235,8.267641083706717,27.65801541130878,6.390470198910011,25.501646258912842,5.274858486989858C23.482181279409897,4.230075046064245,20.991994140665398,5.234328712586729,18.816197442953406,4.5742378308918C16.476281993421185,3.8643567773000167,14.776950598567128,0.8348824225659357,12.374923724839217,1.2924874040697212C10.014006996408877,1.742260580074464,9.00896543269341,4.63839036972242,7.746028337940697,6.6831919745567845C6.717873353184604,8.347861554366188,6.304516347202474,10.23303532753571,5.703015644938116,12.094868936588114C5.12939166616558,13.870415330161048,4.525338728499489,15.574338287002178,4.276157473487409,17.423532210554626C3.9682477126208746,19.708555049729583,2.5202175262619733,22.526872723950273,4.066868671571564,24.236845832247766C5.702270458334026,26.044941397369993,8.993960198948386,24.114079017091488,11.2222930778699,25.10315998317964C13.236706723321252,25.997289497396785,13.82191410481544,29.196997144301402,16,29.533555841073394" fill="#1EC255" strokewidth="0"/>

</g>

<g id="SVGRepo_tracerCarrier" stroke-linecap="round" stroke-linejoin="round" stroke="#CCCCCC" stroke-width="0.096"/>

<g id="SVGRepo_iconCarrier"> <rect width="16" height="16" id="icon-bound" fill="none"/> <path d="M15,3L15,4.268C15.598,4.614 16,5.26 16,6C16,7.104 15.104,8 14,8C12.896,8 12,7.104 12,6C12,5.26 12.402,4.614 13,4.268L13,3.5C13,2.672 12.328,2 11.5,2C10.672,2 10,2.672 10,3.5L10,12L10,12.013C9.993,14.215 8.203,16 6,16C3.792,16 2,14.208 2,12L2,11.829C0.835,11.417 0,10.305 0,9C0,7.344 1.344,6 3,6C4.656,6 6,7.344 6,9C6,10.305 5.165,11.417 4,11.829L4,12.006C4,12.108 4.008,12.21 4.024,12.311C4.049,12.471 4.094,12.629 4.157,12.778C4.254,13.008 4.395,13.219 4.569,13.397C4.736,13.568 4.933,13.709 5.15,13.81C5.336,13.898 5.535,13.957 5.739,13.983C5.958,14.012 6.181,14.004 6.397,13.961C6.583,13.923 6.764,13.859 6.932,13.77C7.13,13.665 7.311,13.527 7.464,13.362C7.615,13.2 7.738,13.014 7.828,12.812C7.898,12.654 7.948,12.487 7.975,12.317C7.992,12.212 8,12.106 8,12L8,3.5C8,1.568 9.568,0 11.5,0C13.262,0 14.721,1.305 14.964,3L15,3ZM3,8C2.448,8 2,8.448 2,9C2,9.552 2.448,10 3,10C3.552,10 4,9.552 4,9C4,8.448 3.552,8 3,8Z"/> </g>

</svg>